# Blender v2.78 (sub 0) OBJ File: 'Game_Brücke.blend'
# www.blender.org
mtllib Boden_lp.mtl
o Cube.023_Cube.039
v 0.063939 0.058493 1.019254
v 0.045576 0.214939 1.020788
v 0.042597 0.057984 0.037027
v 0.043262 0.217149 0.049532
v 1.034455 0.051981 1.016736
v 1.033814 0.214139 1.019705
v 1.026323 0.053399 0.051289
v 1.028166 0.214678 0.055026
v 0.976666 0.038765 0.041949
v 0.978929 0.228257 0.044624
v 0.975715 0.038008 1.034794
v 0.975878 0.233083 1.031836
v 0.029057 0.035003 0.112714
v 0.030148 0.235192 0.107478
v 1.039645 0.035680 0.102524
v 1.041802 0.230755 0.102386
v 0.986827 0.252381 0.103985
v 0.985897 0.016686 0.104428
v 0.111446 0.034909 0.029406
v 0.107087 0.235750 1.039641
v 0.111982 0.228643 0.027962
v 0.112998 0.038139 1.039792
v 0.106514 0.010569 0.104085
v 0.105022 0.259532 0.103263
v 0.044691 0.044878 0.957157
v 1.043525 0.231268 0.968272
v 0.987224 0.254856 0.975403
v 0.986842 0.014220 0.974677
v 0.036511 0.224109 0.973520
v 1.041624 0.032446 0.966487
v 0.108057 0.013526 0.974729
v 0.105299 0.256127 0.975431
v 0.035402 0.133404 1.037484
v 0.034418 0.129055 0.024649
v 1.041475 0.129257 0.030323
v 1.036115 0.132156 1.028220
v 0.978577 0.132898 1.050866
v 0.987729 0.129846 0.002865
v 1.059002 0.129815 0.103840
v 0.008595 0.130869 0.104779
v 0.104268 0.130099 -0.001835
v 0.107299 0.131668 1.063304
v 0.008099 0.130184 0.974509
v 1.057259 0.131277 0.973711
v 0.543583 0.233834 0.025155
v 0.544631 0.055071 1.029378
v 0.546174 0.253691 0.103261
v 0.545942 0.032696 0.026500
v 0.543982 0.210553 1.033285
v 0.544388 0.015533 0.102783
v 0.547435 0.250582 0.973057
v 0.546016 0.018195 0.971813
v 0.545201 0.130422 1.057011
v 0.545812 0.128960 -0.001995
v 0.023016 0.237130 0.537217
v 1.035903 0.032242 0.538536
v 0.026093 0.029147 0.537251
v 1.040441 0.226914 0.535450
v 0.986537 0.253403 0.539152
v 0.988140 0.015661 0.540626
v 0.104878 0.009096 0.538919
v 0.105024 0.260066 0.539635
v 1.065545 0.131721 0.539468
v -0.004596 0.129552 0.540198
v 0.546289 0.012927 0.539040
v 0.546174 0.255872 0.539786
vt 0.1955 0.4567
vt 0.1955 0.4972
vt 0.1446 0.4972
vt 0.1446 0.4567
vt 0.0747 0.8880
vt 0.1446 0.8880
vt 0.1446 0.9119
vt 0.0747 0.9119
vt 0.8106 0.9524
vt 0.8106 0.9119
vt 0.8554 0.9119
vt 0.8554 0.9524
vt 0.9253 0.5279
vt 0.8554 0.5279
vt 0.8554 0.4972
vt 0.9253 0.4972
vt 0.8106 0.0277
vt 0.8106 0.0037
vt 0.8554 0.0037
vt 0.8554 0.0277
vt 0.8106 0.5279
vt 0.8106 0.4972
vt 0.8106 0.8880
vt 0.8554 0.8880
vt 0.8106 0.2076
vt 0.8554 0.2076
vt 0.9253 0.9119
vt 0.9253 0.8880
vt 0.0747 0.7081
vt 0.1446 0.7081
vt 0.1446 0.2076
vt 0.1446 0.0277
vt 0.1955 0.0277
vt 0.1955 0.2076
vt 0.1955 0.8880
vt 0.1955 0.9119
vt 0.1446 0.5279
vt 0.1955 0.5279
vt 0.1446 0.0037
vt 0.1955 0.0037
vt 0.1446 0.9524
vt 0.1955 0.9524
vt 0.5035 0.4567
vt 0.5035 0.4972
vt 0.1955 0.7081
vt 0.1446 0.4184
vt 0.1446 0.3877
vt 0.1955 0.3877
vt 0.1955 0.4184
vt 0.0747 0.4972
vt 0.0747 0.5279
vt 0.8106 0.4184
vt 0.8106 0.3877
vt 0.8554 0.3877
vt 0.8554 0.4184
vt 0.8106 0.7081
vt 0.8554 0.7081
vt 0.9253 0.7081
vt 0.5035 0.7081
vt 0.5035 0.5279
vt 0.5035 0.4184
vt 0.5035 0.3877
vt 0.8554 0.4567
vt 0.8106 0.4567
vt 0.5035 0.2076
vt 0.5035 0.0277
vt 0.5035 0.9119
vt 0.5035 0.8880
vt 0.5035 0.0037
vt 0.5035 0.9524
vt 0.5035 0.9907
vt 0.8106 0.9907
vt 0.9912 0.7081
vt 0.9912 0.5279
vt 0.0087 0.4972
vt 0.0087 0.5279
vt 0.1446 0.9907
vt 0.1955 0.9907
vt 0.0087 0.7081
vt 0.0087 0.8880
vt 0.9912 0.9119
vt 0.9912 0.8880
vt 0.9912 0.4972
vt 0.8554 0.9907
vt 0.0087 0.9119
vn -0.9876 -0.0058 -0.1565
vn -0.7170 0.6720 -0.1852
vn -0.6209 0.5322 -0.5755
vn -0.7037 0.0021 -0.7105
vn 0.2097 -0.0062 -0.9777
vn 0.1831 0.7009 -0.6893
vn 0.6342 0.5246 -0.5679
vn 0.7345 -0.0119 -0.6785
vn 0.9883 -0.0110 0.1521
vn 0.7700 0.6142 0.1724
vn 0.6530 0.4212 0.6294
vn 0.7080 -0.0052 0.7061
vn -0.1794 -0.0322 0.9832
vn -0.1782 0.6502 0.7386
vn -0.6357 0.5130 0.5768
vn -0.7111 -0.0616 0.7004
vn 0.1698 -0.9595 0.2247
vn 0.7335 -0.6570 0.1740
vn 0.6600 -0.4401 0.6089
vn 0.1580 -0.6114 0.7754
vn -0.1777 0.9653 0.1912
vn -0.7356 0.6549 0.1729
vn 0.2068 0.9531 0.2208
vn 0.1620 0.6181 0.7692
vn 0.0028 -0.9719 0.2355
vn 0.0067 -0.6304 0.7762
vn 0.1673 -0.0048 0.9859
vn 0.0115 -0.0125 -0.9998
vn 0.0104 0.7000 -0.7141
vn 0.0099 -0.7237 -0.6900
vn 0.1737 -0.7191 -0.6728
vn 0.1733 -0.9713 -0.1629
vn 0.0074 -0.9904 -0.1382
vn 0.1968 0.9648 -0.1746
vn 0.7523 0.6334 -0.1811
vn -0.1607 0.6690 -0.7257
vn -0.1460 0.9733 -0.1770
vn 0.6231 -0.5420 -0.5638
vn 0.7254 -0.6654 -0.1762
vn 0.9904 -0.0170 -0.1366
vn -0.9996 -0.0272 0.0085
vn -0.7328 0.6804 0.0075
vn 0.0076 0.9873 -0.1586
vn -0.6166 -0.5081 -0.6013
vn -0.1567 -0.7095 -0.6871
vn -0.1515 -0.9760 -0.1563
vn -0.7151 -0.6804 -0.1598
vn -0.1646 0.0011 -0.9863
vn -0.7068 -0.6842 0.1794
vn -0.2104 -0.9516 0.2238
vn -0.2000 -0.6477 0.7352
vn -0.6026 -0.5515 0.5768
vn 0.0039 0.9718 0.2355
vn 0.0094 0.6143 0.7890
vn 0.0112 -0.0156 0.9998
vn 0.0062 1.0000 0.0020
vn -0.1546 0.9879 0.0067
vn -0.7110 -0.7031 0.0111
vn -0.1523 -0.9883 0.0071
vn -0.9760 -0.0728 0.2052
vn 0.0056 -1.0000 0.0016
vn 0.1663 -0.9861 -0.0018
vn 0.7800 0.6258 -0.0012
vn 0.2094 0.9778 -0.0010
vn 0.7379 -0.6749 -0.0023
vn 0.9999 -0.0155 -0.0002
usemtl None
s 1
f 40/1/1 14/2/2 4/3/3 34/4/4
f 38/5/5 10/6/6 8/7/7 35/8/8
f 44/9/9 26/10/10 6/11/11 36/12/12
f 42/13/13 20/14/14 2/15/15 33/16/16
f 28/17/17 30/18/18 5/19/19 11/20/20
f 32/21/21 29/22/22 2/15/15 20/14/14
f 26/10/10 27/23/23 12/24/24 6/11/11
f 52/25/25 28/17/17 11/20/20 46/26/26
f 36/27/12 6/11/11 12/24/24 37/28/27
f 54/29/28 45/30/29 10/6/6 38/5/5
f 48/31/30 9/32/31 18/33/32 50/34/33
f 8/7/7 10/6/6 17/35/34 16/36/35
f 21/37/36 4/3/3 14/2/2 24/38/37
f 9/32/31 7/39/38 15/40/39 18/33/32
f 35/41/8 8/7/7 16/36/35 39/42/40
f 64/43/41 55/44/42 14/2/2 40/1/1
f 45/30/29 21/37/36 24/38/37 47/45/43
f 3/46/44 19/47/45 23/48/46 13/49/47
f 34/50/4 4/3/3 21/37/36 41/51/48
f 25/52/49 31/53/50 22/54/51 1/55/52
f 51/56/53 32/21/21 20/14/14 49/57/54
f 53/58/55 49/57/54 20/14/14 42/13/13
f 66/59/56 62/60/57 32/21/21 51/56/53
f 57/61/58 61/62/59 31/53/50 25/52/49
f 33/63/16 2/15/15 29/22/22 43/64/60
f 65/65/61 60/66/62 28/17/17 52/25/25
f 58/67/63 59/68/64 27/23/23 26/10/10
f 62/60/57 55/44/42 29/22/22 32/21/21
f 60/66/62 56/69/65 30/18/18 28/17/17
f 63/70/66 58/67/63 26/10/10 44/9/9
f 56/71/65 63/70/66 44/9/9 30/72/18
f 1/55/52 33/63/16 43/64/60 25/52/49
f 46/73/26 53/58/55 42/13/13 22/74/51
f 3/75/44 34/50/4 41/51/48 19/76/45
f 57/61/58 64/43/41 40/1/1 13/49/47
f 7/77/38 35/41/8 39/42/40 15/78/39
f 48/79/30 54/29/28 38/5/5 9/80/31
f 5/81/19 36/27/12 37/28/27 11/82/20
f 22/74/51 42/13/13 33/16/16 1/83/52
f 30/72/18 44/9/9 36/12/12 5/84/19
f 9/80/31 38/5/5 35/8/8 7/85/38
f 13/49/47 40/1/1 34/4/4 3/46/44
f 19/76/45 41/51/48 54/29/28 48/79/30
f 11/82/20 37/28/27 53/58/55 46/73/26
f 61/62/59 65/65/61 52/25/25 31/53/50
f 59/68/64 66/59/56 51/56/53 27/23/23
f 37/28/27 12/24/24 49/57/54 53/58/55
f 27/23/23 51/56/53 49/57/54 12/24/24
f 10/6/6 45/30/29 47/45/43 17/35/34
f 19/47/45 48/31/30 50/34/33 23/48/46
f 41/51/48 21/37/36 45/30/29 54/29/28
f 31/53/50 52/25/25 46/26/26 22/54/51
f 17/35/34 47/45/43 66/59/56 59/68/64
f 23/48/46 50/34/33 65/65/61 61/62/59
f 25/52/49 43/64/60 64/43/41 57/61/58
f 15/78/39 39/42/40 63/70/66 56/71/65
f 39/42/40 16/36/35 58/67/63 63/70/66
f 18/33/32 15/40/39 56/69/65 60/66/62
f 24/38/37 14/2/2 55/44/42 62/60/57
f 16/36/35 17/35/34 59/68/64 58/67/63
f 50/34/33 18/33/32 60/66/62 65/65/61
f 13/49/47 23/48/46 61/62/59 57/61/58
f 47/45/43 24/38/37 62/60/57 66/59/56
f 43/64/60 29/22/22 55/44/42 64/43/41
