# Blender v2.78 (sub 0) OBJ File: 'Game_Brücke.blend'
# www.blender.org
mtllib Stair_single.mtl
o Cube.028_Cube.040
v 0.019898 -0.073178 0.074895
v 0.019063 0.031860 0.062761
v 0.021627 -0.069178 -0.077777
v 0.008952 0.056088 -0.069390
v 0.965539 -0.066210 0.061548
v 0.967206 0.058383 0.065052
v 0.965648 -0.069359 -0.068582
v 0.966130 0.075905 -0.083452
v 0.925818 -0.093206 -0.101042
v 0.929371 0.091211 -0.106365
v 0.917253 -0.101124 0.094804
v 0.904065 0.084696 0.090668
v 0.058933 -0.097510 -0.085130
v 0.061802 0.052353 0.092231
v 0.059533 0.077413 -0.080957
v 0.065286 -0.097200 0.096202
v 0.368888 0.090616 0.090779
v 0.659256 0.093704 0.094313
v 0.369387 -0.092573 -0.096571
v 0.653804 -0.102152 -0.108347
v 0.010141 -0.089303 -0.007681
v 0.003068 0.050048 0.000405
v 0.965198 -0.095664 0.005348
v 0.974481 0.087073 -0.001097
v 0.926616 0.115594 -0.000102
v 0.950043 -0.117073 0.006742
v 0.032014 -0.106509 -0.008647
v 0.071439 0.095286 0.004170
v 0.653476 -0.095898 0.103949
v 0.365612 -0.104192 0.105649
v 0.012861 0.000415 0.083727
v -0.000111 0.001223 -0.062515
v 0.966924 0.002539 -0.080418
v 0.969210 -0.012502 0.074094
v 0.950649 -0.035377 0.113168
v 0.927810 0.009170 -0.121831
v 0.091164 -0.006323 -0.096316
v 0.082619 -0.008204 0.108871
v 0.656106 0.099646 -0.103404
v 0.370772 0.096216 -0.102813
v 0.971480 0.001062 -0.001155
v 0.002036 -0.009126 -0.001607
v 0.353149 0.111992 -0.001511
v 0.643085 0.119390 -0.004920
v 0.650306 -0.114907 0.007881
v 0.366245 -0.109917 0.006972
v 0.659203 -0.000950 0.114145
v 0.356756 -0.001543 0.116965
v 0.366104 0.000308 -0.134655
v 0.649958 0.000323 -0.135425
vt 0.3857 0.8800
vt 0.2569 0.8800
vt 0.2569 0.7668
vt 0.3857 0.7668
vt 0.9387 0.4692
vt 0.9387 0.3805
vt 0.9931 0.3805
vt 0.9931 0.4692
vt 0.1263 0.8845
vt 0.1263 0.9948
vt 0.0083 0.9948
vt 0.0083 0.8845
vt 0.0667 0.0984
vt 0.0667 0.1871
vt 0.0040 0.1871
vt 0.0040 0.0984
vt 0.9387 0.6611
vt 0.9931 0.6611
vt 0.9931 0.7571
vt 0.9387 0.7571
vt 0.0667 0.2832
vt 0.0040 0.2832
vt 0.9931 0.2832
vt 0.9387 0.2832
vt 0.9387 0.1871
vt 0.9931 0.1871
vt 0.3693 0.3805
vt 0.0667 0.3805
vt 0.3693 0.2832
vt 0.9931 0.0984
vt 0.9387 0.0984
vt 0.6602 0.0984
vt 0.6602 0.0038
vt 0.9387 0.0038
vt 0.0040 0.4692
vt 0.0040 0.3805
vt 0.0667 0.4692
vt 0.0040 0.6611
vt 0.0667 0.6611
vt 0.0667 0.7571
vt 0.0040 0.7571
vt 0.6602 0.4692
vt 0.9387 0.5638
vt 0.6602 0.5638
vt 0.6602 0.3805
vt 0.6602 0.2832
vt 0.6602 0.1871
vt 0.3693 0.5638
vt 0.6602 0.6611
vt 0.3693 0.6611
vt 0.3693 0.0984
vt 0.3693 0.0038
vt 0.6602 0.7571
vt 0.3693 0.7571
vt 0.3693 0.1871
vt 0.0040 0.5638
vt 0.0667 0.5638
vt 0.9931 0.5638
vt 0.2458 0.8845
vt 0.2458 0.9948
vt 0.3857 0.9917
vt 0.2569 0.9917
vt 0.5229 0.9917
vt 0.5229 0.8800
vt 0.2458 0.7670
vt 0.1263 0.7670
vt 0.9931 0.0038
vt 0.0667 0.0038
vt 0.0040 0.0038
vt 0.0083 0.7670
vt 0.5229 0.7668
vt 0.3693 0.4692
vn -0.9984 -0.0320 0.0472
vn -0.8469 0.5177 0.1211
vn -0.7229 0.4400 -0.5328
vn -0.8419 -0.0124 -0.5394
vn 0.3650 -0.0073 -0.9310
vn 0.3346 0.6548 -0.6776
vn 0.8231 0.3948 -0.4081
vn 0.8989 -0.0472 -0.4355
vn 0.9995 -0.0314 -0.0055
vn 0.8430 0.5334 0.0689
vn 0.8078 0.3845 0.4468
vn 0.9114 0.0044 0.4115
vn -0.1954 0.0738 0.9779
vn -0.3179 0.6241 0.7138
vn -0.7662 0.4360 0.4720
vn -0.7658 0.0653 0.6397
vn 0.4459 -0.8943 0.0377
vn 0.8926 -0.4502 0.0237
vn 0.8997 -0.3385 0.2753
vn 0.2979 -0.6858 0.6640
vn -0.2834 0.9523 0.1133
vn 0.2762 0.9578 0.0793
vn 0.2423 0.6535 0.7171
vn -0.0559 0.7388 -0.6716
vn -0.3213 0.6791 -0.6600
vn -0.0513 0.9969 0.0584
vn 0.4955 -0.0886 0.8641
vn 0.0096 0.0455 0.9989
vn 0.0035 -0.6943 0.7197
vn -0.1759 0.0069 -0.9844
vn -0.8460 -0.5330 -0.0132
vn -0.3717 -0.9274 -0.0416
vn -0.2636 -0.6781 0.6861
vn -0.7552 -0.3961 0.5222
vn 0.0078 0.0025 -0.9999
vn 0.3569 -0.6531 -0.6679
vn 0.0018 -0.7491 -0.6624
vn 0.0061 0.7418 -0.6706
vn 0.0000 0.9994 0.0334
vn 0.0089 0.6916 0.7222
vn -0.0385 -0.7536 -0.6562
vn -0.0047 -1.0000 0.0032
vn -0.0096 -0.9998 -0.0181
vn -0.0152 0.0720 0.9973
vn -0.0104 -0.7131 0.7010
vn -0.0365 0.7038 0.7094
vn -0.6974 -0.2955 -0.6529
vn -0.2690 -0.6825 -0.6796
vn 0.8792 -0.3100 -0.3618
vn -0.0572 -0.0020 -0.9984
usemtl None
s 1
f 42/1/1 22/2/2 4/3/3 32/4/4
f 36/5/5 10/6/6 8/7/7 33/8/8
f 41/9/9 24/10/10 6/11/11 34/12/12
f 38/13/13 14/14/14 2/15/15 31/16/16
f 26/17/17 23/18/18 5/19/19 11/20/20
f 28/21/21 22/22/2 2/15/15 14/14/14
f 24/23/10 25/24/22 12/25/23 6/26/11
f 40/27/24 15/28/25 28/21/21 43/29/26
f 34/30/12 6/26/11 12/25/23 35/31/27
f 35/31/27 47/32/28 29/33/29 11/34/20
f 32/35/4 4/36/3 15/28/25 37/37/30
f 21/38/31 27/39/32 16/40/33 1/41/34
f 50/42/35 36/5/5 9/43/36 20/44/37
f 50/42/35 39/45/38 10/6/6 36/5/5
f 25/24/22 44/46/39 18/47/40 12/25/23
f 19/48/41 20/44/37 45/49/42 46/50/43
f 47/32/28 48/51/44 30/52/45 29/33/29
f 46/50/43 45/49/42 29/53/29 30/54/45
f 48/51/44 17/55/46 14/14/14 38/13/13
f 20/44/37 9/43/36 26/17/17 45/49/42
f 27/39/32 46/50/43 30/54/45 16/40/33
f 3/56/47 13/57/48 27/39/32 21/38/31
f 44/46/39 43/29/26 17/55/46 18/47/40
f 8/7/7 10/6/6 25/24/22 24/23/10
f 15/28/25 4/36/3 22/22/2 28/21/21
f 9/43/36 7/58/49 23/18/18 26/17/17
f 33/59/8 8/60/7 24/10/10 41/9/9
f 31/61/16 2/62/15 22/2/2 42/1/1
f 1/63/34 31/61/16 42/1/1 21/64/31
f 7/65/49 33/59/8 41/9/9 23/66/18
f 45/49/42 26/17/17 11/20/20 29/53/29
f 43/29/26 28/21/21 14/14/14 17/55/46
f 35/31/27 12/25/23 18/47/40 47/32/28
f 3/56/47 32/35/4 37/37/30 13/57/48
f 13/57/48 19/48/41 46/50/43 27/39/32
f 5/67/19 34/30/12 35/31/27 11/34/20
f 16/68/33 38/13/13 31/16/16 1/69/34
f 23/66/18 41/9/9 34/12/12 5/70/19
f 9/43/36 36/5/5 33/8/8 7/58/49
f 21/64/31 42/1/1 32/4/4 3/71/47
f 48/51/44 38/13/13 16/68/33 30/52/45
f 47/32/28 18/47/40 17/55/46 48/51/44
f 37/37/30 15/28/25 40/27/24 49/72/50
f 49/72/50 40/27/24 39/45/38 50/42/35
f 37/37/30 49/72/50 19/48/41 13/57/48
f 49/72/50 50/42/35 20/44/37 19/48/41
f 10/6/6 39/45/38 44/46/39 25/24/22
f 39/45/38 40/27/24 43/29/26 44/46/39
