# Blender v2.78 (sub 0) OBJ File: 'Game_Brücke.blend'
# www.blender.org
mtllib Stair_Wall_bend.mtl
o Cube.019_Cube.027
v 0.168874 0.034517 0.139461
v 0.043320 1.284163 0.139312
v 0.122163 0.037250 -0.121137
v 0.038157 1.312703 -0.082006
v 1.361312 0.025162 -0.447628
v 1.379679 1.259598 -0.428486
v 1.222205 0.031465 -0.574427
v 1.209559 1.255010 -0.592586
v 1.142980 0.019084 -0.536601
v 1.163751 1.274197 -0.562788
v 1.281404 -0.019701 -0.334107
v 1.296316 1.263128 -0.316039
v 0.907671 0.008177 -0.364591
v 0.980016 1.283315 -0.096274
v 0.841875 1.252725 -0.325988
v 1.047612 -0.014836 -0.149256
v 0.880344 0.037571 -0.328134
v 0.886534 1.327707 -0.080120
v 0.770869 1.311136 -0.323844
v 0.948952 0.025259 -0.116795
v 0.566298 0.042771 -0.198181
v 0.465991 1.263137 0.075594
v 0.427904 1.269913 -0.186081
v 0.644918 0.048347 0.024741
v 0.522578 0.025302 -0.190913
v 0.414052 1.286790 0.096841
v 0.314870 1.299087 -0.147207
v 0.559110 0.040637 0.064792
v 0.181188 0.019803 -0.148135
v 0.191196 1.296593 0.148555
v 0.114019 1.297964 -0.138718
v 0.255449 0.025368 0.140415
v 0.040155 1.214584 0.150475
v 0.038262 1.252381 -0.136516
v 1.211707 1.208312 -0.603739
v 1.397023 1.119783 -0.416806
v 1.336942 1.148010 -0.327932
v 1.141713 1.207027 -0.588947
v 0.843756 1.187286 -0.361308
v 0.972734 1.206467 -0.081963
v 0.741233 1.251065 -0.328428
v 0.877082 1.212967 -0.025610
v 0.434873 1.192069 -0.199382
v 0.488291 1.191025 0.078952
v 0.344698 1.216831 -0.189430
v 0.422911 1.213350 0.124554
v 0.109040 1.216563 -0.156727
v 0.137488 1.211216 0.161898
v 0.103102 0.084261 -0.114765
v 1.220820 0.068641 -0.587592
v 1.375767 0.102399 -0.415145
v 1.325525 0.074381 -0.315838
v 1.139596 0.062073 -0.557637
v 0.855331 0.109498 -0.380676
v 1.023986 0.068940 -0.114561
v 0.830518 0.135292 -0.341273
v 0.934571 0.098446 -0.061687
v 0.561608 0.108667 -0.217024
v 0.654434 0.098837 0.027582
v 0.493602 0.111977 -0.222349
v 0.578341 0.120189 0.081230
v 0.178695 0.078057 -0.160066
v 0.254894 0.077185 0.156134
v 0.163266 0.082848 0.148730
v 0.103560 0.313000 0.133564
v 0.088602 0.310402 -0.108056
v 1.224854 0.278350 -0.608282
v 1.387267 0.265286 -0.421203
v 1.350064 0.271605 -0.322662
v 1.134386 0.280720 -0.589774
v 0.822901 0.284884 -0.371355
v 0.981015 0.280003 -0.067525
v 0.731874 0.287163 -0.319203
v 0.880377 0.288302 -0.042161
v 0.543180 0.287748 -0.249881
v 0.662579 0.288818 0.063833
v 0.366149 0.318521 -0.179744
v 0.496643 0.294573 0.095478
v 0.157460 0.314664 -0.151237
v 0.224961 0.293280 0.157237
v 0.028052 0.392415 0.143473
v 0.060563 0.343052 -0.141606
v 1.207392 0.397761 -0.577766
v 1.361942 0.391562 -0.400327
v 1.324771 0.384734 -0.327965
v 1.145151 0.380424 -0.580103
v 0.824559 0.370988 -0.374251
v 0.987244 0.363615 -0.067130
v 0.734329 0.367381 -0.324535
v 0.911810 0.399928 -0.055360
v 0.530829 0.351157 -0.247537
v 0.651407 0.345852 0.073435
v 0.332957 0.348810 -0.197668
v 0.483165 0.351364 0.121399
v 0.158090 0.347259 -0.161270
v 0.217370 0.350722 0.157506
v 0.085553 0.671631 0.120513
v 0.073653 0.664681 -0.117491
v 1.232132 0.594959 -0.577211
v 1.372265 0.575339 -0.388215
v 1.317276 0.582073 -0.312726
v 1.149682 0.596968 -0.586443
v 0.836853 0.625150 -0.385733
v 0.988008 0.573864 -0.070441
v 0.694609 0.631075 -0.308062
v 0.891336 0.623652 -0.007528
v 0.480621 0.620434 -0.219169
v 0.607827 0.641191 0.090245
v 0.349398 0.599171 -0.189424
v 0.426569 0.650112 0.123088
v 0.122618 0.650252 -0.148529
v 0.168021 0.673908 0.155826
v 0.035094 1.050620 0.140950
v 0.020312 1.050180 -0.122087
v 1.208846 1.025836 -0.591892
v 1.365471 1.033540 -0.413297
v 1.323537 1.026475 -0.347285
v 1.137820 1.024612 -0.549602
v 0.887657 1.070433 -0.374904
v 0.991229 1.047726 -0.099951
v 0.741469 1.033228 -0.314220
v 0.870214 1.013212 -0.026265
v 0.429663 1.007156 -0.200092
v 0.501196 1.005097 0.098089
v 0.340656 1.030546 -0.192558
v 0.412022 1.026473 0.131724
v 0.106139 1.034453 -0.146848
v 0.133014 1.033867 0.153625
v 0.115980 0.029213 0.008897
v 0.021148 1.305981 0.013388
v 1.314285 0.001260 -0.521496
v 1.314313 1.270812 -0.511833
v 1.246399 1.286179 -0.453364
v 1.239527 -0.015419 -0.443557
v 0.971760 -0.022935 -0.252396
v 0.890520 1.258573 -0.214700
v 0.922268 0.018231 -0.236840
v 0.811907 1.332262 -0.163512
v 0.574436 0.025689 -0.084777
v 0.439239 1.316331 -0.031770
v 0.544658 0.008038 -0.076408
v 0.349360 1.332130 -0.024639
v 0.219862 0.001936 0.002041
v 0.124323 1.332298 0.009149
v 1.327182 1.194955 -0.529435
v -0.000006 1.212476 0.014882
v 0.097745 0.075787 0.010192
v 1.333417 0.042335 -0.536986
v 0.081338 0.311720 0.006119
v 1.362152 0.268579 -0.544024
v 0.029478 0.346013 0.013321
v 1.310795 0.396347 -0.497960
v 0.059462 0.671240 0.027964
v 1.311655 0.585808 -0.501120
v -0.004598 1.026154 0.014930
v 1.317349 1.029956 -0.509792
v 0.060301 0.990043 -0.097561
v 1.252260 0.942230 -0.621562
v 1.392416 0.978722 -0.438311
v 1.354324 0.962914 -0.345303
v 1.163598 0.967000 -0.599458
v 0.832877 0.940104 -0.377370
v 1.030000 0.911970 -0.104632
v 0.709936 0.942054 -0.323012
v 0.884097 0.935919 -0.013609
v 0.455101 0.917819 -0.211170
v 0.548616 0.919984 0.089993
v 0.338585 0.945738 -0.188493
v 0.406775 0.948809 0.127391
v 0.123364 0.974473 -0.149665
v 0.141426 0.963457 0.159005
v 0.061796 0.981692 0.113310
v 1.352114 0.960587 -0.543460
v 0.031830 0.980869 0.003992
v 0.026561 0.590322 -0.130069
v 1.219745 0.496360 -0.577443
v 1.367104 0.483450 -0.394271
v 1.321043 0.483404 -0.320343
v 1.147421 0.488696 -0.583272
v 0.785559 0.495855 -0.363099
v 1.023924 0.464436 -0.091092
v 0.702460 0.505246 -0.310224
v 0.901761 0.511790 -0.031431
v 0.519117 0.415758 -0.244844
v 0.630706 0.493521 0.081954
v 0.357380 0.521629 -0.180866
v 0.456669 0.500738 0.122431
v 0.130418 0.499839 -0.152005
v 0.116825 0.557807 0.160581
v 0.006994 0.587391 0.124628
v 1.311226 0.491078 -0.499540
v -0.006037 0.588275 0.001299
vt 0.0667 0.5083
vt 0.0733 0.4730
vt 0.1119 0.4772
vt 0.1208 0.5052
vt 0.5975 0.5100
vt 0.5965 0.4841
vt 0.6199 0.4867
vt 0.6236 0.5056
vt 0.6757 0.5020
vt 0.6714 0.4711
vt 0.7149 0.4678
vt 0.7329 0.5234
vt 0.1369 0.3528
vt 0.1567 0.3833
vt 0.1068 0.3862
vt 0.1032 0.3576
vt 0.9410 0.4951
vt 0.9415 0.5395
vt 0.9031 0.5315
vt 0.9018 0.4782
vt 0.1405 0.4367
vt 0.1016 0.4389
vt 0.6310 0.4353
vt 0.5965 0.4357
vt 0.5769 0.3841
vt 0.6274 0.3921
vt 0.9353 0.3755
vt 0.8903 0.3857
vt 0.6349 0.3349
vt 0.5947 0.3414
vt 0.4438 0.5172
vt 0.4334 0.4879
vt 0.3958 0.5025
vt 0.4005 0.4826
vt 0.9370 0.3502
vt 0.8849 0.3449
vt 0.4377 0.4399
vt 0.4417 0.3828
vt 0.4389 0.3526
vt 0.9151 0.1941
vt 0.8622 0.2119
vt 0.2675 0.5221
vt 0.2632 0.4920
vt 0.3947 0.4309
vt 0.4078 0.3956
vt 0.4008 0.3524
vt 0.2320 0.5144
vt 0.2169 0.4827
vt 0.9143 0.1803
vt 0.8565 0.1759
vt 0.2524 0.4282
vt 0.2498 0.3778
vt 0.2585 0.3479
vt 0.8996 0.0565
vt 0.8458 0.0698
vt 0.1453 0.5175
vt 0.1453 0.4896
vt 0.2187 0.4344
vt 0.2285 0.3824
vt 0.2299 0.3533
vt 0.8953 0.0159
vt 0.8426 0.0397
vt 0.2290 0.2810
vt 0.1314 0.2836
vt 0.1084 0.5650
vt 0.1372 0.5785
vt 0.2625 0.2732
vt 0.2316 0.5839
vt 0.4005 0.2770
vt 0.2668 0.5928
vt 0.4506 0.2920
vt 0.4003 0.5815
vt 0.6014 0.2931
vt 0.4650 0.5639
vt 0.5932 0.5797
vt 0.6308 0.2983
vt 0.0967 0.2927
vt 0.6869 0.5682
vt 0.7325 0.5612
vt 0.6299 0.5782
vt 0.0635 0.5738
vt 0.0911 0.9830
vt 0.0875 0.9637
vt 0.1331 0.9524
vt 0.1403 0.9707
vt 0.6099 0.9705
vt 0.6119 0.9519
vt 0.6460 0.9472
vt 0.6468 0.9629
vt 0.6896 0.9762
vt 0.6925 0.9579
vt 0.7464 0.9420
vt 0.7265 0.9720
vt 0.8250 0.0706
vt 0.8221 0.0383
vt 0.8665 0.5325
vt 0.8657 0.4901
vt 0.4871 0.9836
vt 0.4712 0.9409
vt 0.4653 0.9765
vt 0.4501 0.9345
vt 0.8599 0.3705
vt 0.3231 0.9735
vt 0.3236 0.9463
vt 0.8479 0.3315
vt 0.3051 0.9794
vt 0.2964 0.9427
vt 0.8404 0.2179
vt 0.1671 0.9776
vt 0.1673 0.9544
vt 0.8247 0.1854
vt 0.0727 0.8713
vt 0.1205 0.8622
vt 0.6128 0.8693
vt 0.6481 0.8709
vt 0.7002 0.8782
vt 0.7461 0.8749
vt 0.7394 0.0663
vt 0.7275 0.0229
vt 0.8014 0.5469
vt 0.7939 0.5086
vt 0.4510 0.8723
vt 0.4052 0.8727
vt 0.7744 0.3521
vt 0.3197 0.8736
vt 0.7685 0.3137
vt 0.2418 0.8631
vt 0.7596 0.2240
vt 0.1563 0.8607
vt 0.7509 0.1643
vt 0.0661 0.8495
vt 0.1217 0.8408
vt 0.6169 0.8297
vt 0.6440 0.8232
vt 0.6994 0.8224
vt 0.7449 0.8218
vt 0.7161 0.0659
vt 0.6915 -0.0007
vt 0.7491 0.5413
vt 0.7488 0.5102
vt 0.4512 0.8379
vt 0.4065 0.8407
vt 0.7415 0.3570
vt 0.3141 0.8484
vt 0.7244 0.3301
vt 0.2305 0.8480
vt 0.7358 0.2213
vt 0.1582 0.8478
vt 0.7258 0.1602
vt 0.0630 0.7622
vt 0.0549 0.7226
vt 0.1147 0.7299
vt 0.1078 0.7635
vt 0.6176 0.7858
vt 0.6169 0.7421
vt 0.6515 0.7410
vt 0.6480 0.7818
vt 0.6979 0.7830
vt 0.6969 0.7442
vt 0.7482 0.7475
vt 0.7463 0.7846
vt 0.1265 0.0917
vt 0.1446 0.1390
vt 0.1118 0.1385
vt 0.0849 0.1027
vt 0.6399 0.0781
vt 0.6369 0.1153
vt 0.6019 0.1159
vt 0.6072 0.0764
vt 0.4326 0.7891
vt 0.4551 0.7374
vt 0.3902 0.7865
vt 0.3857 0.7373
vt 0.4512 0.1048
vt 0.4684 0.0612
vt 0.3090 0.8228
vt 0.2900 0.7426
vt 0.4088 0.1235
vt 0.4175 0.0785
vt 0.2380 0.7810
vt 0.2356 0.7511
vt 0.3017 0.1283
vt 0.3111 0.0692
vt 0.1485 0.7907
vt 0.1400 0.7335
vt 0.2371 0.1310
vt 0.2481 0.0711
vt 0.0676 0.5944
vt 0.1091 0.5932
vt 0.6135 0.6036
vt 0.6470 0.6119
vt 0.6901 0.6020
vt 0.7325 0.5885
vt 0.1352 0.2554
vt 0.1017 0.2622
vt 0.6460 0.2767
vt 0.6095 0.2667
vt 0.4470 0.6157
vt 0.3908 0.6171
vt 0.4656 0.2397
vt 0.2778 0.6270
vt 0.4037 0.2462
vt 0.2301 0.6162
vt 0.2795 0.2395
vt 0.1417 0.6017
vt 0.2281 0.2502
vt 0.0235 0.5961
vt 0.0146 0.5660
vt 0.0179 0.7626
vt 0.0165 0.7198
vt 0.0224 0.8817
vt 0.0148 0.8394
vt 0.0289 0.9763
vt 0.0364 0.9948
vt 0.0146 0.5011
vt 0.9484 0.0133
vt 0.9598 0.0393
vt 0.9620 0.1820
vt 0.9620 0.2012
vt 0.9786 0.3476
vt 0.9859 0.3686
vt 0.9965 0.4910
vt 0.9870 0.5290
vt 0.0221 0.4744
vt 0.2590 0.0112
vt 0.1649 0.0094
vt 0.3204 0.0101
vt 0.4259 0.0332
vt 0.4547 0.0195
vt 0.6124 0.0368
vt 0.6430 0.0410
vt 0.0963 0.0249
vn -0.9941 0.1010 0.0379
vn -0.7125 0.6993 0.0568
vn -0.6014 0.7202 -0.3458
vn -0.6710 0.2376 -0.7023
vn -0.4774 0.1289 -0.8692
vn -0.2387 0.8163 -0.5259
vn 0.1227 0.6163 -0.7779
vn 0.1330 0.1122 -0.9847
vn 0.7192 0.0489 -0.6931
vn 0.5279 0.7140 -0.4598
vn 0.8054 0.5926 0.0088
vn 0.9972 -0.0706 0.0251
vn -0.0078 0.0813 0.9966
vn 0.0475 0.6724 0.7387
vn -0.5413 0.5649 0.6228
vn -0.6273 0.0958 0.7728
vn 0.0616 -0.9873 -0.1464
vn 0.4526 -0.7467 -0.4874
vn 0.8129 -0.5807 -0.0439
vn 0.4836 -0.7921 0.3724
vn -0.0650 0.9966 0.0500
vn 0.0577 0.9971 -0.0486
vn 0.4998 0.7019 0.5073
vn -0.2871 -0.9564 0.0526
vn 0.1801 -0.7964 0.5773
vn 0.7204 0.0116 0.6934
vn -0.4292 0.1193 -0.8953
vn 0.0360 0.7750 -0.6309
vn -0.2780 0.1321 -0.9514
vn 0.0580 0.7336 -0.6770
vn -0.3129 -0.9450 0.0950
vn 0.0526 -0.7902 0.6105
vn 0.2555 0.9470 -0.1947
vn 0.4692 0.7028 0.5347
vn 0.5175 0.0738 0.8525
vn 0.1806 -0.9833 -0.0197
vn 0.3169 -0.7436 0.5887
vn -0.2582 0.0979 -0.9611
vn -0.1778 0.6861 -0.7054
vn 0.1851 0.9760 -0.1147
vn 0.3919 0.8270 0.4030
vn 0.3696 0.1562 0.9159
vn -0.1315 0.1668 -0.9772
vn -0.0200 0.7653 -0.6434
vn 0.1816 -0.9833 -0.0031
vn 0.3007 -0.7085 0.6383
vn 0.0983 0.9944 0.0393
vn 0.3596 0.6542 0.6653
vn 0.3858 0.1693 0.9069
vn -0.0939 -0.9945 0.0457
vn 0.0372 -0.7274 0.6852
vn -0.2144 0.1475 -0.9655
vn -0.1545 0.7240 -0.6722
vn 0.1166 0.9931 -0.0079
vn 0.3117 0.6909 0.6522
vn 0.3405 0.1473 0.9286
vn -0.6884 -0.7132 0.1323
vn -0.4544 -0.6367 0.6230
vn 0.2493 0.0192 0.9682
vn -0.0846 -0.0814 0.9931
vn -0.7525 -0.2188 -0.6211
vn -0.3092 -0.1440 -0.9400
vn 0.3319 0.0519 0.9419
vn -0.1446 -0.0025 -0.9895
vn 0.4043 0.0884 0.9103
vn -0.2355 0.0283 -0.9715
vn 0.5477 0.0440 0.8354
vn -0.3811 0.0724 -0.9217
vn 0.7152 0.0553 0.6967
vn -0.5035 0.0579 -0.8620
vn -0.4916 0.1054 -0.8644
vn 0.9882 0.1193 0.0959
vn -0.6627 -0.1899 0.7244
vn 0.7171 0.2315 -0.6573
vn 0.0554 0.1992 -0.9784
vn -0.9506 -0.3066 0.0475
vn -0.9644 -0.2172 0.1509
vn -0.8562 -0.1667 -0.4890
vn -0.6517 -0.6028 -0.4602
vn -0.3042 -0.7434 -0.5956
vn -0.4246 -0.2632 -0.8662
vn 0.0384 -0.2419 -0.9695
vn -0.0109 -0.6546 -0.7559
vn 0.7172 -0.2302 -0.6577
vn 0.9739 -0.1986 0.1099
vn 0.0742 -0.1293 0.9888
vn -0.5626 -0.1745 0.8081
vn 0.7510 -0.2247 0.6209
vn -0.5508 -0.7584 -0.3484
vn -0.7080 -0.3168 -0.6312
vn -0.6118 -0.7452 -0.2652
vn -0.5748 -0.2702 -0.7723
vn 0.4225 -0.2468 0.8721
vn -0.0237 -0.7466 -0.6648
vn -0.2476 -0.2231 -0.9428
vn 0.3397 -0.2275 0.9126
vn 0.0934 -0.7760 -0.6238
vn -0.1585 -0.1652 -0.9734
vn 0.3783 -0.2083 0.9019
vn -0.2695 -0.7389 -0.6175
vn -0.3302 -0.1121 -0.9372
vn 0.3263 -0.1275 0.9366
vn -0.8691 -0.4850 0.0965
vn -0.7252 -0.4871 -0.4865
vn -0.3878 0.0059 -0.9217
vn 0.1492 0.0991 -0.9838
vn 0.7702 0.1304 -0.6243
vn 0.9952 0.0870 0.0439
vn 0.0255 -0.0797 0.9965
vn -0.5504 -0.3180 0.7719
vn 0.7854 0.0304 0.6183
vn -0.5661 -0.0656 -0.8217
vn -0.4416 -0.1042 -0.8911
vn 0.4288 -0.0063 0.9033
vn -0.3263 -0.1325 -0.9359
vn 0.3572 -0.0450 0.9330
vn -0.2372 -0.1736 -0.9558
vn 0.3482 -0.1018 0.9318
vn -0.2934 -0.2850 -0.9125
vn 0.2309 -0.1173 0.9658
vn -0.8658 -0.5004 0.0012
vn -0.6235 -0.3949 -0.6747
vn -0.3034 0.0544 -0.9513
vn 0.2743 0.1245 -0.9535
vn 0.7673 0.1809 -0.6153
vn 0.9910 0.1257 0.0450
vn 0.0106 -0.0860 0.9962
vn -0.6952 -0.2933 0.6562
vn 0.7657 0.0437 0.6417
vn -0.5235 -0.0172 -0.8518
vn -0.4326 -0.0328 -0.9010
vn 0.4196 0.0119 0.9076
vn -0.3251 -0.0731 -0.9428
vn 0.3459 -0.0308 0.9377
vn -0.2122 -0.1716 -0.9620
vn 0.3325 -0.0952 0.9383
vn -0.1953 -0.2489 -0.9486
vn 0.1954 -0.0952 0.9761
vn -0.9657 0.2535 -0.0551
vn -0.9496 0.3103 0.0441
vn -0.7483 0.1971 -0.6333
vn -0.7393 0.2022 -0.6422
vn -0.2364 -0.0173 -0.9715
vn -0.2800 -0.0172 -0.9598
vn 0.3653 -0.0800 -0.9274
vn 0.3830 -0.0356 -0.9230
vn 0.7785 -0.0321 -0.6268
vn 0.7920 -0.0842 -0.6047
vn 0.9959 -0.0529 0.0728
vn 0.9989 -0.0342 0.0327
vn -0.1026 0.0692 0.9923
vn -0.0994 0.0395 0.9943
vn -0.6760 0.2192 0.7035
vn -0.7795 0.2421 0.5777
vn 0.7299 -0.0096 0.6834
vn 0.7392 -0.0304 0.6728
vn -0.5146 -0.0181 -0.8572
vn -0.5091 0.0114 -0.8606
vn -0.4289 0.0029 -0.9033
vn -0.4252 0.0056 -0.9050
vn 0.5358 -0.0224 0.8440
vn 0.5241 -0.0313 0.8511
vn -0.3201 0.0422 -0.9464
vn -0.3162 0.0041 -0.9487
vn 0.4223 -0.0148 0.9063
vn 0.4024 -0.0673 0.9130
vn -0.2308 0.0282 -0.9726
vn -0.2106 -0.0078 -0.9775
vn 0.2698 0.0046 0.9629
vn 0.3095 -0.0298 0.9504
vn -0.1852 0.0331 -0.9821
vn -0.2892 0.0291 -0.9568
vn 0.1629 0.0085 0.9866
vn 0.1733 0.0150 0.9847
vn -0.9376 -0.3473 0.0143
vn -0.7738 -0.3124 -0.5510
vn -0.3647 0.1690 -0.9156
vn 0.2885 0.1494 -0.9457
vn 0.7581 0.2083 -0.6179
vn 0.9691 0.2438 -0.0376
vn -0.1519 -0.0557 0.9868
vn -0.7151 -0.2647 0.6470
vn 0.7610 0.1259 0.6363
vn -0.4815 0.1200 -0.8682
vn -0.4062 0.0738 -0.9108
vn 0.5641 0.0903 0.8207
vn -0.2924 0.0323 -0.9557
vn 0.4220 0.0959 0.9015
vn -0.1755 -0.0010 -0.9845
vn 0.2755 0.0631 0.9592
vn -0.3635 -0.0762 -0.9285
vn 0.1829 0.0071 0.9831
usemtl Wand
s 1
f 146/1/1 130/2/2 4/3/3 34/4/4
f 38/5/5 10/6/6 8/7/7 35/8/8
f 145/9/9 132/10/10 6/11/11 36/12/12
f 48/13/13 30/14/14 2/15/15 33/16/16
f 134/17/17 131/18/18 5/19/19 11/20/20
f 144/21/21 130/22/2 2/15/15 30/14/14
f 132/23/10 133/24/22 12/25/23 6/26/11
f 135/27/24 134/17/17 11/20/20 16/28/25
f 36/29/12 6/26/11 12/25/23 37/30/26
f 39/31/27 15/32/28 10/6/6 38/5/5
f 41/33/29 19/34/30 15/32/28 39/31/27
f 137/35/31 135/27/24 16/28/25 20/36/32
f 133/24/22 136/37/33 14/38/34 12/25/23
f 37/30/26 12/25/23 14/38/34 40/39/35
f 139/40/36 137/35/31 20/36/32 24/41/37
f 43/42/38 23/43/39 19/34/30 41/33/29
f 136/37/33 138/44/40 18/45/41 14/38/34
f 40/39/35 14/38/34 18/45/41 42/46/42
f 45/47/43 27/48/44 23/43/39 43/42/38
f 141/49/45 139/40/36 24/41/37 28/50/46
f 138/44/40 140/51/47 22/52/48 18/45/41
f 42/46/42 18/45/41 22/52/48 44/53/49
f 143/54/50 141/49/45 28/50/46 32/55/51
f 47/56/52 31/57/53 27/48/44 45/47/43
f 140/51/47 142/58/54 26/59/55 22/52/48
f 44/53/49 22/52/48 26/59/55 46/60/56
f 34/4/4 4/3/3 31/57/53 47/56/52
f 129/61/57 143/54/50 32/55/51 1/62/58
f 142/58/54 144/21/21 30/14/14 26/59/55
f 46/60/56 26/59/55 30/14/14 48/13/13
f 126/63/59 46/60/56 48/13/13 128/64/60
f 114/65/61 34/4/4 47/56/52 127/66/62
f 124/67/63 44/53/49 46/60/56 126/63/59
f 127/66/62 47/56/52 45/47/43 125/68/64
f 122/69/65 42/46/42 44/53/49 124/67/63
f 125/68/64 45/47/43 43/42/38 123/70/66
f 120/71/67 40/39/35 42/46/42 122/69/65
f 123/70/66 43/42/38 41/33/29 121/72/68
f 117/73/69 37/30/26 40/39/35 120/71/67
f 121/72/68 41/33/29 39/31/27 119/74/70
f 119/74/70 39/31/27 38/5/5 118/75/71
f 116/76/72 36/29/12 37/30/26 117/73/69
f 128/64/60 48/13/13 33/16/16 113/77/73
f 156/78/74 145/9/9 36/12/12 116/79/72
f 118/75/71 38/5/5 35/8/8 115/80/75
f 155/81/76 146/1/1 34/4/4 114/65/61
f 129/82/57 147/83/77 49/84/78 3/85/79
f 9/86/80 53/87/81 50/88/82 7/89/83
f 131/90/18 148/91/84 51/92/85 5/93/19
f 32/55/51 63/94/86 64/95/87 1/62/58
f 5/19/19 51/96/85 52/97/88 11/20/20
f 13/98/89 54/99/90 53/87/81 9/86/80
f 17/100/91 56/101/92 54/99/90 13/98/89
f 11/20/20 52/97/88 55/102/93 16/28/25
f 21/103/94 58/104/95 56/101/92 17/100/91
f 16/28/25 55/102/93 57/105/96 20/36/32
f 25/106/97 60/107/98 58/104/95 21/103/94
f 20/36/32 57/105/96 59/108/99 24/41/37
f 29/109/100 62/110/101 60/107/98 25/106/97
f 24/41/37 59/108/99 61/111/102 28/50/46
f 3/85/79 49/84/78 62/110/101 29/109/100
f 28/50/46 61/111/102 63/94/86 32/55/51
f 147/83/77 149/112/103 66/113/104 49/84/78
f 53/87/81 70/114/105 67/115/106 50/88/82
f 148/91/84 150/116/107 68/117/108 51/92/85
f 63/94/86 80/118/109 65/119/110 64/95/87
f 51/96/85 68/120/108 69/121/111 52/97/88
f 54/99/90 71/122/112 70/114/105 53/87/81
f 56/101/92 73/123/113 71/122/112 54/99/90
f 52/97/88 69/121/111 72/124/114 55/102/93
f 58/104/95 75/125/115 73/123/113 56/101/92
f 55/102/93 72/124/114 74/126/116 57/105/96
f 60/107/98 77/127/117 75/125/115 58/104/95
f 57/105/96 74/126/116 76/128/118 59/108/99
f 62/110/101 79/129/119 77/127/117 60/107/98
f 59/108/99 76/128/118 78/130/120 61/111/102
f 49/84/78 66/113/104 79/129/119 62/110/101
f 61/111/102 78/130/120 80/118/109 63/94/86
f 149/112/103 151/131/121 82/132/122 66/113/104
f 70/114/105 86/133/123 83/134/124 67/115/106
f 150/116/107 152/135/125 84/136/126 68/117/108
f 80/118/109 96/137/127 81/138/128 65/119/110
f 68/120/108 84/139/126 85/140/129 69/121/111
f 71/122/112 87/141/130 86/133/123 70/114/105
f 73/123/113 89/142/131 87/141/130 71/122/112
f 69/121/111 85/140/129 88/143/132 72/124/114
f 75/125/115 91/144/133 89/142/131 73/123/113
f 72/124/114 88/143/132 90/145/134 74/126/116
f 77/127/117 93/146/135 91/144/133 75/125/115
f 74/126/116 90/145/134 92/147/136 76/128/118
f 79/129/119 95/148/137 93/146/135 77/127/117
f 76/128/118 92/147/136 94/149/138 78/130/120
f 66/113/104 82/132/122 95/148/137 79/129/119
f 78/130/120 94/149/138 96/137/127 80/118/109
f 192/150/139 153/151/140 98/152/141 175/153/142
f 179/154/143 102/155/144 99/156/145 176/157/146
f 191/158/147 154/159/148 100/160/149 177/161/150
f 189/162/151 112/163/152 97/164/153 190/165/154
f 177/166/150 100/167/149 101/168/155 178/169/156
f 180/170/157 103/171/158 102/155/144 179/154/143
f 182/172/159 105/173/160 103/171/158 180/170/157
f 178/169/156 101/168/155 104/174/161 181/175/162
f 184/176/163 107/177/164 105/173/160 182/172/159
f 181/175/162 104/174/161 106/178/165 183/179/166
f 186/180/167 109/181/168 107/177/164 184/176/163
f 183/179/166 106/178/165 108/182/169 185/183/170
f 188/184/171 111/185/172 109/181/168 186/180/167
f 185/183/170 108/182/169 110/186/173 187/187/174
f 175/153/142 98/152/141 111/185/172 188/184/171
f 187/187/174 110/186/173 112/163/152 189/162/151
f 174/188/175 155/81/76 114/65/61 157/189/176
f 161/190/177 118/75/71 115/80/75 158/191/178
f 173/192/179 156/78/74 116/79/72 159/193/180
f 171/194/181 128/64/60 113/77/73 172/195/182
f 159/196/180 116/76/72 117/73/69 160/197/183
f 162/198/184 119/74/70 118/75/71 161/190/177
f 164/199/185 121/72/68 119/74/70 162/198/184
f 160/197/183 117/73/69 120/71/67 163/200/186
f 166/201/187 123/70/66 121/72/68 164/199/185
f 163/200/186 120/71/67 122/69/65 165/202/188
f 168/203/189 125/68/64 123/70/66 166/201/187
f 165/202/188 122/69/65 124/67/63 167/204/190
f 170/205/191 127/66/62 125/68/64 168/203/189
f 167/204/190 124/67/63 126/63/59 169/206/192
f 157/189/176 114/65/61 127/66/62 170/205/191
f 169/206/192 126/63/59 128/64/60 171/194/181
f 158/191/178 115/80/75 156/78/74 173/192/179
f 172/207/182 113/208/73 155/81/76 174/188/175
f 176/157/146 99/156/145 154/159/148 191/158/147
f 190/209/154 97/210/153 153/151/140 192/150/139
f 67/115/106 83/134/124 152/135/125 150/116/107
f 65/211/110 81/212/128 151/131/121 149/112/103
f 50/88/82 67/115/106 150/116/107 148/91/84
f 64/213/87 65/211/110 149/112/103 147/83/77
f 7/89/83 50/88/82 148/91/84 131/90/18
f 1/214/58 64/213/87 147/83/77 129/82/57
f 113/208/73 33/215/16 146/1/1 155/81/76
f 115/80/75 35/8/8 145/9/9 156/78/74
f 27/48/44 31/57/53 144/21/21 142/58/54
f 3/216/79 29/217/100 143/54/50 129/61/57
f 23/43/39 27/48/44 142/58/54 140/51/47
f 29/217/100 25/218/97 141/49/45 143/54/50
f 19/34/30 23/43/39 140/51/47 138/44/40
f 25/218/97 21/219/94 139/40/36 141/49/45
f 15/32/28 19/34/30 138/44/40 136/37/33
f 21/219/94 17/220/91 137/35/31 139/40/36
f 10/6/6 15/32/28 136/37/33 133/24/22
f 17/220/91 13/221/89 135/27/24 137/35/31
f 13/221/89 9/222/80 134/17/17 135/27/24
f 8/7/7 10/6/6 133/24/22 132/23/10
f 31/57/53 4/3/3 130/22/2 144/21/21
f 9/222/80 7/223/83 131/18/18 134/17/17
f 35/8/8 8/7/7 132/10/10 145/9/9
f 33/215/16 2/224/15 130/2/2 146/1/1
f 97/210/153 172/207/182 174/188/175 153/151/140
f 99/156/145 158/191/178 173/192/179 154/159/148
f 110/186/173 169/206/192 171/194/181 112/163/152
f 98/152/141 157/189/176 170/205/191 111/185/172
f 108/182/169 167/204/190 169/206/192 110/186/173
f 111/185/172 170/205/191 168/203/189 109/181/168
f 106/178/165 165/202/188 167/204/190 108/182/169
f 109/181/168 168/203/189 166/201/187 107/177/164
f 104/174/161 163/200/186 165/202/188 106/178/165
f 107/177/164 166/201/187 164/199/185 105/173/160
f 101/168/155 160/197/183 163/200/186 104/174/161
f 105/173/160 164/199/185 162/198/184 103/171/158
f 103/171/158 162/198/184 161/190/177 102/155/144
f 100/167/149 159/196/180 160/197/183 101/168/155
f 112/163/152 171/194/181 172/195/182 97/164/153
f 154/159/148 173/192/179 159/193/180 100/160/149
f 102/155/144 161/190/177 158/191/178 99/156/145
f 153/151/140 174/188/175 157/189/176 98/152/141
f 81/212/128 190/209/154 192/150/139 151/131/121
f 83/134/124 176/157/146 191/158/147 152/135/125
f 94/225/138 187/187/174 189/162/151 96/226/127
f 82/132/122 175/153/142 188/184/171 95/148/137
f 92/227/136 185/183/170 187/187/174 94/225/138
f 95/148/137 188/184/171 186/180/167 93/146/135
f 90/228/134 183/179/166 185/183/170 92/227/136
f 93/146/135 186/180/167 184/176/163 91/144/133
f 88/229/132 181/175/162 183/179/166 90/228/134
f 91/144/133 184/176/163 182/172/159 89/142/131
f 85/230/129 178/169/156 181/175/162 88/229/132
f 89/142/131 182/172/159 180/170/157 87/141/130
f 87/141/130 180/170/157 179/154/143 86/133/123
f 84/231/126 177/166/150 178/169/156 85/230/129
f 96/226/127 189/162/151 190/165/154 81/232/128
f 152/135/125 191/158/147 177/161/150 84/136/126
f 86/133/123 179/154/143 176/157/146 83/134/124
f 151/131/121 192/150/139 175/153/142 82/132/122
