# Blender v2.78 (sub 0) OBJ File: 'Game_Brücke.blend'
# www.blender.org
mtllib Stair_left_COL.mtl
o Cube.021_Cube.037
v 0.000000 0.000000 1.000000
v 0.000000 0.044764 1.000000
v 1.569283 0.000000 0.576453
v 1.569283 1.000000 0.576453
v -0.002245 0.000000 -0.002730
v -0.002124 0.044764 -0.002715
v 1.075450 0.000000 -0.296028
v 1.075895 1.000000 -0.293357
v 0.794184 0.000000 0.925495
v 0.794184 0.522382 0.925495
v 0.557177 0.000000 -0.052531
v 0.557898 0.522382 -0.046189
vn 0.4106 0.0000 0.9118
vn 0.8700 0.0005 -0.4930
vn -0.0878 0.0113 -0.9961
vn -1.0000 0.0014 0.0022
vn 0.0000 -1.0000 0.0000
vn -0.5710 0.8180 0.0690
vn -0.5185 0.8301 0.2054
vn -0.4301 0.0057 -0.9028
vn 0.0934 0.0000 0.9956
usemtl None
s off
f 9//1 3//1 4//1 10//1
f 3//2 7//2 8//2 4//2
f 11//3 5//3 6//3 12//3
f 5//4 1//4 2//4 6//4
f 9//5 1//5 5//5 11//5
f 12//6 6//6 2//6 10//6
f 8//7 12//7 10//7 4//7
f 3//5 9//5 11//5 7//5
f 7//8 11//8 12//8 8//8
f 1//9 9//9 10//9 2//9
