# Blender v2.78 (sub 0) OBJ File: 'Game_Brücke.blend'
# www.blender.org
mtllib Stair_dreieck.mtl
o Cube.029_Cube.048
v 0.036417 0.036908 -0.994024
v 0.019874 0.182621 -0.633549
v 1.501380 0.976501 -0.968244
v 0.047716 0.055643 -0.038831
v 1.485403 0.961183 -0.078935
v 0.034242 0.107432 -1.004081
v 0.058769 0.190105 -0.396088
v 1.477253 0.855944 -1.020538
v 1.494221 0.835152 -0.067234
v 0.056506 0.150386 -0.062584
v 0.305124 0.053182 -1.007895
v 0.023211 0.174519 -0.862713
v 0.037215 0.189203 -0.121961
v 1.266789 0.966132 -1.012870
v 0.302927 0.048812 -0.056229
v 1.265547 0.937286 -0.072445
v 0.041859 0.007332 -0.091584
v 0.029848 0.011154 -0.890725
v 0.550683 0.214605 -0.053628
v 0.300256 0.184319 -0.060052
v 0.875933 0.423671 -0.047441
v 0.625860 0.399136 -0.045592
v 0.362199 0.356530 -0.063081
v 1.211652 0.628620 -0.064005
v 0.884385 0.565392 -0.063506
v 0.683204 0.526702 -0.060256
v 1.492170 0.959661 -0.107891
v 1.190052 0.789407 -0.062757
v 0.943741 0.773632 -0.077859
v 1.499400 0.992465 -0.910125
v 0.315633 0.198462 -1.012179
v 0.553173 0.204373 -1.008188
v 0.333148 0.334891 -1.016861
v 0.614435 0.395544 -1.039662
v 0.887117 0.422828 -1.013998
v 0.625893 0.569388 -1.009233
v 0.915074 0.612760 -1.019297
v 1.194089 0.635460 -1.000571
v 0.925502 0.731260 -0.975343
v 1.226028 0.777530 -0.978205
v 1.478930 0.819011 -0.902624
v 1.507823 0.847389 -0.099926
v 1.225484 0.964600 -0.926450
v 1.485405 0.815902 -0.354043
v 1.234497 0.988596 -0.180878
v 0.299485 0.200580 -0.911632
v 1.480435 0.819629 -0.633237
v 0.282073 0.205388 -0.089111
v 1.221321 0.951793 -0.381332
v 1.234517 0.936149 -0.645576
v 0.308028 0.199413 -0.361571
v 0.287615 0.030369 -0.092319
v 0.314979 0.207746 -0.672541
v 0.288402 0.029479 -0.910931
v 0.343146 0.358027 -0.934836
v 0.343062 0.394615 -0.118148
v 0.593901 0.391699 -0.882956
v 0.603531 0.395468 -0.089796
v 0.597413 0.563018 -0.851355
v 0.678475 0.545297 -0.095436
v 0.906811 0.611904 -0.909384
v 0.874965 0.588892 -0.091906
v 0.921807 0.744565 -0.890743
v 0.923969 0.791087 -0.112181
v 1.213996 0.803985 -0.913311
v 1.195974 0.804597 -0.125090
v 0.038041 0.015864 -0.644630
v 0.033182 0.035900 -0.411928
v 1.499621 0.994372 -0.635065
v 1.499611 0.980965 -0.348172
v 0.287301 0.025946 -0.362193
v 0.282908 0.024025 -0.637766
v 0.339417 0.408141 -0.721170
v 0.338322 0.389682 -0.365747
v 0.581256 0.407709 -0.677974
v 0.594891 0.406065 -0.364133
v 0.633187 0.559810 -0.745379
v 0.611242 0.587244 -0.366815
v 0.897335 0.591822 -0.636239
v 0.885732 0.599041 -0.361018
v 0.908367 0.758611 -0.656419
v 0.927689 0.791699 -0.363616
v 1.213679 0.806986 -0.642604
v 1.203143 0.805669 -0.378593
v 0.980537 0.496557 -0.045065
v 1.049539 0.550542 -0.052334
v 1.049414 0.789098 -0.042996
v 0.985696 0.477349 -1.012856
v 1.070504 0.542139 -1.008408
v 1.070024 0.782816 -0.992264
v 1.050139 0.805558 -0.088952
v 1.048975 0.797311 -0.906606
v 1.051987 0.829115 -0.363225
v 1.049711 0.814412 -0.636485
v 1.352287 0.999352 -1.016459
v 1.284965 0.720745 -1.049392
v 1.417632 0.767979 -1.049742
v 1.342797 0.996709 -0.066049
v 1.309220 0.689286 -0.054587
v 1.391027 0.732624 -0.054288
v 1.314005 1.009399 -0.140995
v 1.349137 1.017936 -0.910115
v 1.355854 0.999226 -0.362881
v 1.353878 1.005861 -0.636112
v 0.675145 0.291576 -0.049504
v 0.783516 0.355427 -0.045233
v 0.754633 0.557016 -0.051531
v 0.685331 0.281066 -0.995013
v 0.773971 0.350327 -1.025337
v 0.744155 0.580980 -1.024262
v 0.752700 0.592571 -0.084698
v 0.749139 0.591521 -0.909898
v 0.752367 0.618303 -0.365680
v 0.750388 0.592120 -0.637771
v 0.380174 0.087830 -0.997132
v 0.391341 0.097144 -0.052948
v 0.474200 0.153053 -0.054386
v 0.448210 0.359359 -0.031037
v 0.509776 0.181680 -1.015442
v 0.454502 0.391974 -1.012593
v 0.448738 0.408989 -0.098785
v 0.464804 0.383854 -0.924028
v 0.477564 0.419001 -0.361192
v 0.464199 0.408945 -0.687376
v 0.151827 0.025829 -1.000550
v 0.154839 0.190201 -0.034547
v 0.140873 0.016543 -0.043556
v 0.153784 0.176158 -1.015966
v 0.143333 0.220613 -0.100020
v 0.127858 0.212639 -0.914141
v 0.149228 0.014441 -0.910943
v 0.149320 0.007393 -0.087575
v 0.150731 0.009451 -0.637742
v 0.151159 0.020534 -0.358189
v 0.167530 0.221195 -0.355775
v 0.149716 0.188567 -0.635269
v 1.395263 0.736797 -0.960560
v 1.311347 0.670602 -0.947196
v 1.194266 0.610425 -0.884270
v 1.063015 0.528534 -0.900740
v 0.979047 0.468372 -0.892667
v 0.870551 0.402223 -0.900446
v 0.771119 0.335407 -0.920151
v 0.678499 0.270695 -0.874473
v 0.545337 0.191908 -0.888003
v 0.496998 0.163327 -0.894294
v 0.371186 0.083161 -0.880891
v 1.396260 0.721792 -0.668758
v 1.316085 0.673785 -0.659934
v 1.189689 0.608450 -0.617302
v 1.067421 0.527336 -0.622827
v 0.979892 0.467681 -0.618203
v 0.887310 0.413140 -0.620425
v 0.769167 0.332998 -0.635254
v 0.677580 0.270576 -0.605179
v 0.550479 0.194748 -0.618062
v 0.496310 0.163688 -0.622920
v 0.371278 0.083938 -0.618227
v 1.402162 0.721852 -0.377997
v 1.316731 0.668826 -0.372658
v 1.207478 0.619472 -0.345742
v 1.068156 0.529253 -0.344090
v 0.982780 0.471561 -0.339345
v 0.885132 0.407512 -0.344098
v 0.775616 0.327372 -0.349162
v 0.678745 0.271339 -0.329548
v 0.550344 0.196826 -0.343246
v 0.483878 0.152668 -0.349776
v 0.371755 0.085433 -0.347673
v 1.408389 0.738751 -0.099723
v 1.325244 0.687068 -0.102586
v 1.216171 0.621276 -0.085474
v 1.058423 0.552005 -0.087492
v 0.987319 0.487836 -0.072683
v 0.880884 0.411896 -0.075028
v 0.782681 0.342929 -0.075759
v 0.680383 0.275129 -0.075933
v 0.556559 0.199563 -0.076352
v 0.481940 0.150435 -0.077754
v 0.376301 0.080242 -0.090682
vt 0.4342 0.8584
vt 0.4956 0.9274
vt 0.4494 0.9728
vt 0.4304 0.9091
vt 0.1143 0.9071
vt 0.1119 0.9637
vt 0.1014 0.9627
vt 0.1033 0.8982
vt 0.9550 0.2964
vt 0.9304 0.2907
vt 0.9589 0.2109
vt 0.9780 0.2141
vt 0.1220 0.0777
vt 0.1071 0.0762
vt 0.0920 0.0300
vt 0.1184 0.0224
vt 0.6744 0.2890
vt 0.5785 0.2734
vt 0.5842 0.2073
vt 0.6930 0.2100
vt 0.5886 0.0117
vt 0.6132 0.0848
vt 0.5610 0.0687
vt 0.5586 0.0289
vt 0.9723 0.3339
vt 0.9425 0.3396
vt 0.6903 0.3480
vt 0.5820 0.3381
vt 0.0491 0.1044
vt 0.0564 0.0425
vt 0.9524 0.8794
vt 0.8547 0.9271
vt 0.8388 0.8598
vt 0.9297 0.8548
vt 0.9516 0.4787
vt 0.9347 0.4803
vt 0.9493 0.4070
vt 0.9740 0.4137
vt 0.6594 0.4806
vt 0.6107 0.4725
vt 0.5950 0.4038
vt 0.6889 0.3998
vt 0.7322 0.9350
vt 0.7243 0.8677
vt 0.9617 0.5176
vt 0.9442 0.5227
vt 0.7085 0.5356
vt 0.5841 0.5373
vt 0.4367 0.6425
vt 0.5079 0.7206
vt 0.4759 0.7891
vt 0.4348 0.7302
vt 0.9542 0.1477
vt 0.8174 0.1588
vt 0.7971 0.0994
vt 0.9425 0.1016
vt 0.9575 0.6643
vt 0.9362 0.6621
vt 0.9550 0.5792
vt 0.9717 0.5785
vt 0.4428 0.4562
vt 0.5159 0.5111
vt 0.4906 0.5967
vt 0.4397 0.5265
vt 0.7071 0.6712
vt 0.6017 0.6744
vt 0.5822 0.6073
vt 0.7112 0.6004
vt 0.4402 0.2878
vt 0.5145 0.3201
vt 0.4859 0.3969
vt 0.4385 0.3137
vt 0.4365 0.0921
vt 0.4893 0.1097
vt 0.4780 0.2007
vt 0.4342 0.1659
vt 0.1009 0.7811
vt 0.1027 0.8256
vt 0.0496 0.7578
vt 0.1021 0.7217
vt 0.0960 0.6243
vt 0.0231 0.6946
vt 0.0068 0.6418
vt 0.0567 0.5560
vt 0.7088 0.1396
vt 0.7075 0.0849
vt 0.9805 0.7148
vt 0.9557 0.7211
vt 0.0961 0.5766
vt 0.0977 0.5101
vt 0.0991 0.4502
vt 0.0339 0.4947
vt 0.0292 0.4531
vt 0.0580 0.3904
vt 0.7187 0.7384
vt 0.5952 0.7403
vt 0.1001 0.3845
vt 0.1025 0.3063
vt 0.1069 0.2548
vt 0.0384 0.2971
vt 0.0235 0.2527
vt 0.0689 0.1809
vt 0.1100 0.2044
vt 0.1128 0.1553
vt 0.6113 0.9392
vt 0.5740 0.9359
vt 0.5673 0.8902
vt 0.5953 0.8867
vt 0.9661 0.8257
vt 0.9588 0.7800
vt 0.9784 0.7823
vt 0.5885 0.1296
vt 0.5560 0.1355
vt 0.0236 0.8925
vt 0.0224 0.8393
vt 0.5446 0.2704
vt 0.5520 0.2080
vt 0.5449 0.3333
vt 0.5448 0.4799
vt 0.5340 0.4051
vt 0.5471 0.5317
vt 0.5749 0.6738
vt 0.5362 0.6079
vt 0.5656 0.7448
vt 0.5609 0.8227
vt 0.5893 0.8058
vt 0.9813 0.1477
vt 0.9683 0.0998
vt 0.9767 0.8847
vt 0.8195 0.0259
vt 0.7079 0.0027
vt 0.9730 0.0226
vt 0.3124 0.0758
vt 0.2140 0.0738
vt 0.2326 0.0104
vt 0.3164 0.0162
vt 0.4068 0.0839
vt 0.4049 0.0200
vt 0.9920 0.0595
vt 0.2980 0.8992
vt 0.2989 0.9919
vt 0.1963 0.9832
vt 0.2007 0.8951
vt 0.4433 0.0321
vt 0.3895 0.8980
vt 0.3961 0.9864
vt 0.4160 0.9759
vt 0.7244 0.7982
vt 0.8337 0.7879
vt 0.8385 0.7334
vt 0.8340 0.6715
vt 0.8310 0.5919
vt 0.8272 0.5360
vt 0.8222 0.4780
vt 0.8268 0.4023
vt 0.8261 0.3530
vt 0.8263 0.2872
vt 0.8310 0.2100
vt 0.4370 0.5861
vt 0.5263 0.6409
vt 0.9929 0.9509
vt 0.9748 0.9609
vt 0.7364 0.9888
vt 0.6093 0.9942
vt 0.0667 0.9391
vt 0.5802 0.9921
vt 0.8645 0.9747
vt 0.4403 0.8004
vt 0.5121 0.8827
vt 0.4343 0.3961
vt 0.5370 0.4545
vt 0.4321 0.2065
vt 0.5189 0.2461
vt 0.4027 0.1537
vt 0.2154 0.1449
vt 0.1255 0.1453
vt 0.3107 0.1452
vt 0.4703 0.0352
vt 0.4072 0.8417
vt 0.3108 0.8325
vt 0.2106 0.8308
vt 0.1172 0.8345
vt 0.4056 0.7894
vt 0.3089 0.7841
vt 0.2095 0.7791
vt 0.1178 0.7864
vt 0.3901 0.7181
vt 0.2957 0.7093
vt 0.2007 0.7168
vt 0.1102 0.7215
vt 0.3976 0.6347
vt 0.2991 0.6324
vt 0.2011 0.6298
vt 0.1089 0.6293
vt 0.3952 0.5794
vt 0.2984 0.5765
vt 0.2003 0.5754
vt 0.1064 0.5774
vt 0.3990 0.5124
vt 0.3000 0.5200
vt 0.2030 0.5141
vt 0.1084 0.5091
vt 0.4065 0.4492
vt 0.3063 0.4452
vt 0.2060 0.4430
vt 0.1103 0.4466
vt 0.3912 0.3894
vt 0.2965 0.3868
vt 0.2001 0.3842
vt 0.1112 0.3825
vt 0.3959 0.3081
vt 0.3018 0.3097
vt 0.2063 0.3071
vt 0.1124 0.3054
vt 0.3980 0.2786
vt 0.3039 0.2772
vt 0.2094 0.2658
vt 0.1151 0.2586
vt 0.3928 0.2026
vt 0.3032 0.2003
vt 0.2098 0.1981
vt 0.1232 0.1952
vn 0.4089 -0.4297 -0.8051
vn -0.0916 0.6938 -0.7143
vn 0.7652 0.4635 -0.4467
vn 0.7743 -0.1064 -0.6238
vn 0.9551 -0.2628 0.1364
vn 0.7807 0.6126 0.1231
vn 0.5433 0.5510 0.6334
vn 0.6712 -0.2747 0.6884
vn -0.4346 0.4115 0.8011
vn -0.6397 0.7243 0.2572
vn -0.4605 0.8050 0.3740
vn -0.1498 0.2445 0.9580
vn 0.0298 -0.9821 0.1858
vn -0.0080 -0.5852 0.8108
vn -0.6232 -0.2303 0.7473
vn -0.6751 -0.7075 0.2087
vn -0.6573 0.7512 -0.0603
vn -0.7004 0.7096 -0.0767
vn -0.6173 0.7835 -0.0713
vn -0.6681 0.7440 -0.0011
vn -0.6814 -0.7277 -0.0778
vn -0.7940 0.5991 -0.1025
vn -0.6793 0.2177 -0.7008
vn -0.5987 -0.5322 -0.5986
vn -0.0953 0.4110 0.9066
vn -0.1000 0.9568 0.2728
vn -0.0385 0.9975 -0.0583
vn -0.1065 0.9926 -0.0581
vn -0.0668 0.5144 0.8549
vn -0.6506 0.3327 0.6826
vn -0.1709 0.9707 0.1686
vn -0.0847 0.9963 -0.0151
vn -0.7924 0.6078 -0.0516
vn -0.7204 0.6880 0.0873
vn -0.4803 0.4071 0.7768
vn -0.6796 0.6524 0.3354
vn -0.4811 0.8230 0.3020
vn -0.2651 0.3101 0.9130
vn -0.6927 0.7210 0.0178
vn -0.7715 0.6360 -0.0184
vn -0.6513 0.7565 -0.0592
vn -0.6201 0.7841 -0.0260
vn -0.1682 0.9854 0.0262
vn -0.8207 0.5712 0.0079
vn -0.1270 0.4490 0.8844
vn -0.1643 0.9029 0.3971
vn -0.1049 0.9939 -0.0343
vn -0.1468 0.9891 -0.0060
vn 0.4223 -0.5054 -0.7525
vn -0.0882 0.6744 -0.7331
vn -0.3995 0.4173 -0.8162
vn 0.3056 -0.4934 -0.8144
vn -0.1363 0.9559 0.2601
vn -0.0704 0.9971 -0.0273
vn -0.7345 0.6783 -0.0166
vn -0.7747 0.6080 0.1737
vn -0.4495 0.4855 0.7497
vn -0.6779 0.6959 0.2369
vn -0.5407 0.7039 0.4605
vn -0.1651 0.2703 0.9485
vn 0.3829 -0.5426 -0.7476
vn -0.0778 0.6736 -0.7350
vn -0.2636 0.3763 -0.8882
vn 0.3919 -0.5777 -0.7160
vn -0.7990 0.5992 -0.0505
vn -0.7892 0.6045 -0.1082
vn -0.7125 0.7004 -0.0409
vn -0.6541 0.7561 -0.0199
vn 0.3120 -0.5773 -0.7545
vn -0.1706 0.7411 -0.6493
vn -0.2777 0.1937 -0.9409
vn 0.3156 -0.6644 -0.6775
vn 0.0150 -0.7000 -0.7140
vn -0.1759 0.5701 -0.8025
vn -0.2944 0.2764 -0.9148
vn 0.2353 -0.6643 -0.7094
vn 0.2904 -0.5412 0.7891
vn 0.4027 -0.5306 0.7458
vn -0.1738 0.3959 0.9017
vn 0.3327 -0.5697 0.7515
vn 0.3151 -0.4752 0.8215
vn -0.0596 0.5441 0.8368
vn -0.0833 0.9965 -0.0104
vn -0.7837 0.6206 0.0233
vn -0.0721 0.9723 0.2224
vn 0.3340 -0.3923 0.8570
vn 0.3344 -0.4114 0.8479
vn 0.3168 -0.4474 0.8363
vn -0.1523 0.9871 -0.0496
vn -0.2026 0.9687 -0.1429
vn 0.2549 -0.4538 0.8538
vn 0.2991 -0.4404 0.8465
vn 0.3130 -0.5164 0.7971
vn 0.3193 -0.5277 0.7871
vn 0.2876 -0.6005 0.7461
vn -0.1397 0.9881 -0.0643
vn -0.5898 0.4526 -0.6688
vn -0.8210 0.5557 -0.1310
vn -0.5168 0.3946 0.7597
vn -0.5751 0.7930 0.2010
vn -0.2203 0.9600 -0.1729
vn -0.0384 0.7118 0.7013
vn -0.6166 0.4483 -0.6471
vn -0.5551 0.6013 -0.5746
vn -0.6492 0.4994 -0.5737
vn -0.6667 0.7111 -0.2231
vn -0.7728 -0.6340 0.0292
vn -0.7022 -0.7105 0.0457
vn 0.0142 -0.9998 0.0165
vn 0.0088 -0.9999 -0.0097
vn 0.0425 -0.9940 -0.1005
vn 0.9153 -0.4026 -0.0139
vn 0.7742 0.6328 0.0138
vn 0.7730 0.6342 0.0133
vn 0.9193 -0.3933 -0.0079
vn 0.9031 -0.4277 -0.0377
vn 0.7698 0.6340 -0.0736
vn -0.6501 0.7592 -0.0303
vn -0.6123 0.7905 -0.0099
vn -0.0869 0.9962 0.0013
vn -0.7207 0.6930 -0.0141
vn -0.6128 0.7902 -0.0045
vn -0.0987 0.9949 0.0191
vn -0.7248 0.6867 0.0550
vn -0.5890 0.8061 0.0559
vn -0.0281 0.9995 0.0112
vn -0.7019 0.7121 -0.0108
vn -0.6185 0.7851 -0.0312
vn 0.4103 -0.5889 -0.6962
vn -0.0288 -0.3151 -0.9486
vn 0.4314 -0.7190 -0.5448
vn 0.4002 -0.6724 -0.6226
vn 0.3181 -0.9455 -0.0688
vn 0.3318 -0.9434 0.0005
vn 0.3108 -0.9414 0.1311
vn 0.3332 -0.9428 0.0007
vn 0.6230 -0.7645 -0.1652
vn 0.6497 -0.7599 -0.0191
vn 0.6426 -0.7661 0.0059
vn 0.6422 -0.7622 0.0815
vn 0.4709 -0.8595 -0.1986
vn 0.4977 -0.8673 -0.0092
vn 0.4872 -0.8732 0.0096
vn 0.5014 -0.8587 0.1056
vn 0.5051 -0.8586 -0.0880
vn 0.4975 -0.8674 -0.0018
vn 0.4821 -0.8760 0.0152
vn 0.4711 -0.8718 0.1344
vn 0.5714 -0.8194 -0.0452
vn 0.5558 -0.8313 -0.0018
vn 0.5512 -0.8339 0.0281
vn 0.5345 -0.8349 0.1313
vn 0.5456 -0.8376 -0.0269
vn 0.5445 -0.8387 -0.0017
vn 0.5694 -0.8217 0.0249
vn 0.5969 -0.7794 0.1903
vn 0.5363 -0.8432 -0.0361
vn 0.5449 -0.8384 -0.0069
vn 0.5635 -0.8261 0.0086
vn 0.5641 -0.8003 0.2033
vn 0.5654 -0.8236 -0.0446
vn 0.5599 -0.8285 -0.0087
vn 0.5545 -0.8322 0.0021
vn 0.5412 -0.8130 0.2145
vn 0.5397 -0.8415 -0.0244
vn 0.5271 -0.8497 -0.0034
vn 0.5193 -0.8545 0.0045
vn 0.5013 -0.8243 0.2629
vn 0.5043 -0.8630 -0.0292
vn 0.5128 -0.8585 0.0007
vn 0.5252 -0.8509 0.0002
vn 0.5244 -0.8122 0.2555
vn 0.5262 -0.8500 -0.0241
vn 0.5239 -0.8517 -0.0003
vn 0.5352 -0.8447 -0.0057
vn 0.5478 -0.8197 0.1670
vn 0.5392 -0.8420 -0.0182
vn 0.5470 -0.8371 -0.0006
vn 0.5403 -0.8415 -0.0061
vn 0.5162 -0.8508 0.0978
usemtl None
s 1
f 97/1/1 95/2/2 3/3/3 8/4/4
f 42/5/5 27/6/6 5/7/7 9/8/8
f 23/9/9 56/10/10 48/11/11 20/12/12
f 132/13/13 127/14/14 4/15/15 17/16/16
f 73/17/17 55/18/18 46/19/19 53/20/20
f 18/21/21 12/22/22 6/23/23 1/24/24
f 118/25/25 121/26/26 56/10/10 23/9/9
f 124/27/27 122/28/28 55/18/18 73/17/17
f 127/14/14 126/29/29 10/30/30 4/15/15
f 101/31/31 103/32/32 49/33/33 45/34/34
f 26/35/35 60/36/36 58/37/37 22/38/38
f 77/39/39 59/40/40 57/41/41 75/42/42
f 103/32/32 104/43/43 50/44/44 49/33/33
f 107/45/45 111/46/46 60/36/36 26/35/35
f 114/47/47 112/48/48 59/40/40 77/39/39
f 89/49/49 90/50/50 40/51/51 38/52/52
f 129/53/53 135/54/54 7/55/55 13/56/56
f 29/57/57 64/58/58 62/59/59 25/60/60
f 109/61/61 110/62/62 37/63/63 35/64/64
f 81/65/65 63/66/66 61/67/67 79/68/68
f 119/69/69 120/70/70 34/71/71 32/72/72
f 125/73/73 128/74/74 31/75/75 11/76/76
f 99/77/77 100/78/78 28/79/79 24/80/80
f 86/81/81 87/82/82 29/83/57 25/84/60
f 135/54/54 136/85/83 2/86/84 7/55/55
f 87/87/82 91/88/85 64/58/58 29/57/57
f 85/89/86 86/81/81 25/84/60 21/90/87
f 106/91/88 107/92/45 26/93/35 22/94/38
f 94/95/89 92/96/90 63/66/66 81/65/65
f 105/97/91 106/91/88 22/94/38 19/98/92
f 117/99/93 118/100/25 23/101/9 20/102/12
f 116/103/94 117/99/93 20/102/12 15/104/95
f 102/105/96 95/106/2 14/107/97 43/108/98
f 16/109/99 45/34/34 66/110/100 28/111/79
f 130/112/101 128/113/74 6/23/23 12/22/22
f 100/78/78 98/114/102 16/115/99 28/79/79
f 55/18/18 33/116/103 31/117/75 46/19/19
f 122/28/28 120/118/70 33/116/103 55/18/18
f 59/40/40 36/119/104 34/120/71 57/41/41
f 112/48/48 110/121/62 36/119/104 59/40/40
f 63/66/66 39/122/105 37/123/63 61/67/67
f 92/96/90 90/124/50 39/122/105 63/66/66
f 43/108/98 14/107/97 40/125/51 65/126/106
f 136/85/83 130/112/101 12/22/22 2/86/84
f 126/127/29 129/53/53 13/56/56 10/128/30
f 104/43/43 102/105/96 43/108/98 50/44/44
f 98/129/102 101/31/31 45/34/34 16/109/99
f 68/130/107 7/55/55 2/86/84 67/131/108
f 17/132/16 13/56/56 7/55/55 68/130/107
f 133/133/109 134/134/110 68/135/107 67/136/108
f 131/137/111 133/133/109 67/136/108 18/138/21
f 67/131/108 2/86/84 12/22/22 18/21/21
f 4/139/15 10/128/30 13/56/56 17/132/16
f 47/140/112 69/141/113 70/142/114 44/143/115
f 134/134/110 132/13/13 17/16/16 68/135/107
f 125/73/73 131/137/111 18/138/21 1/144/24
f 41/145/116 30/146/117 69/141/113 47/140/112
f 44/143/115 70/142/114 27/6/6 42/5/5
f 8/4/4 3/147/3 30/146/117 41/145/116
f 49/33/33 50/44/44 83/148/118 84/149/119
f 45/34/34 49/33/33 84/149/119 66/110/100
f 50/44/44 43/108/98 65/126/106 83/148/118
f 91/88/85 93/150/120 82/151/121 64/58/58
f 93/150/120 94/95/89 81/65/65 82/151/121
f 64/58/58 82/151/121 80/152/122 62/59/59
f 82/151/121 81/65/65 79/68/68 80/152/122
f 111/46/46 113/153/123 78/154/124 60/36/36
f 113/153/123 114/47/47 77/39/39 78/154/124
f 60/36/36 78/154/124 76/155/125 58/37/37
f 78/154/124 77/39/39 75/42/42 76/155/125
f 121/26/26 123/156/126 74/157/127 56/10/10
f 123/156/126 124/27/27 73/17/17 74/157/127
f 56/10/10 74/157/127 51/158/128 48/11/11
f 74/157/127 73/17/17 53/20/20 51/158/128
f 84/149/119 83/148/118 94/95/89 93/150/120
f 66/110/100 84/149/119 93/150/120 91/88/85
f 65/126/106 40/125/51 90/124/50 92/96/90
f 83/148/118 65/126/106 92/96/90 94/95/89
f 28/111/79 66/110/100 91/88/85 87/87/82
f 24/80/80 28/79/79 87/82/82 86/81/81
f 35/64/64 37/63/63 89/49/49 88/159/129
f 37/63/63 39/160/105 90/50/50 89/49/49
f 5/161/7 27/162/6 101/31/31 98/129/102
f 69/163/113 30/164/117 102/105/96 104/43/43
f 9/8/8 5/165/7 98/114/102 100/78/78
f 30/164/117 3/166/3 95/106/2 102/105/96
f 70/167/114 69/163/113 104/43/43 103/32/32
f 38/52/52 40/51/51 97/1/1 96/168/130
f 27/162/6 70/167/114 103/32/32 101/31/31
f 40/51/51 14/169/97 95/2/2 97/1/1
f 80/152/122 79/68/68 114/47/47 113/153/123
f 62/59/59 80/152/122 113/153/123 111/46/46
f 61/67/67 37/123/63 110/121/62 112/48/48
f 21/90/87 25/84/60 107/92/45 106/91/88
f 32/72/72 34/71/71 109/61/61 108/170/131
f 34/71/71 36/171/104 110/62/62 109/61/61
f 79/68/68 61/67/67 112/48/48 114/47/47
f 25/60/60 62/59/59 111/46/46 107/45/45
f 76/155/125 75/42/42 124/27/27 123/156/126
f 58/37/37 76/155/125 123/156/126 121/26/26
f 57/41/41 34/120/71 120/118/70 122/28/28
f 19/98/92 22/94/38 118/100/25 117/99/93
f 11/76/76 31/75/75 119/69/69 115/172/132
f 31/75/75 33/173/103 120/70/70 119/69/69
f 75/42/42 57/41/41 122/28/28 124/27/27
f 22/38/38 58/37/37 121/26/26 118/25/25
f 11/76/76 54/174/133 131/137/111 125/73/73
f 71/175/134 52/176/135 132/13/13 134/134/110
f 54/174/133 72/177/136 133/133/109 131/137/111
f 72/177/136 71/175/134 134/134/110 133/133/109
f 20/12/12 48/11/11 129/53/53 126/127/29
f 53/20/20 46/19/19 130/112/101 136/85/83
f 46/19/19 31/117/75 128/113/74 130/112/101
f 51/158/128 53/20/20 136/85/83 135/54/54
f 1/144/24 6/178/23 128/74/74 125/73/73
f 48/11/11 51/158/128 135/54/54 129/53/53
f 15/104/95 20/102/12 126/29/29 127/14/14
f 52/176/135 15/104/95 127/14/14 132/13/13
f 8/4/4 41/145/116 137/179/137 97/1/1
f 41/145/116 47/140/112 148/180/138 137/179/137
f 47/140/112 44/143/115 159/181/139 148/180/138
f 44/143/115 42/5/5 170/182/140 159/181/139
f 42/5/5 9/8/8 100/78/78 170/182/140
f 97/1/1 137/179/137 138/183/141 96/168/130
f 137/179/137 148/180/138 149/184/142 138/183/141
f 148/180/138 159/181/139 160/185/143 149/184/142
f 159/181/139 170/182/140 171/186/144 160/185/143
f 170/182/140 100/78/78 99/77/77 171/186/144
f 96/168/130 138/183/141 139/187/145 38/52/52
f 138/183/141 149/184/142 150/188/146 139/187/145
f 149/184/142 160/185/143 161/189/147 150/188/146
f 160/185/143 171/186/144 172/190/148 161/189/147
f 171/186/144 99/77/77 24/80/80 172/190/148
f 38/52/52 139/187/145 140/191/149 89/49/49
f 139/187/145 150/188/146 151/192/150 140/191/149
f 150/188/146 161/189/147 162/193/151 151/192/150
f 161/189/147 172/190/148 173/194/152 162/193/151
f 172/190/148 24/80/80 86/81/81 173/194/152
f 89/49/49 140/191/149 141/195/153 88/159/129
f 140/191/149 151/192/150 152/196/154 141/195/153
f 151/192/150 162/193/151 163/197/155 152/196/154
f 162/193/151 173/194/152 174/198/156 163/197/155
f 173/194/152 86/81/81 85/89/86 174/198/156
f 88/159/129 141/195/153 142/199/157 35/64/64
f 141/195/153 152/196/154 153/200/158 142/199/157
f 152/196/154 163/197/155 164/201/159 153/200/158
f 163/197/155 174/198/156 175/202/160 164/201/159
f 174/198/156 85/89/86 21/90/87 175/202/160
f 35/64/64 142/199/157 143/203/161 109/61/61
f 142/199/157 153/200/158 154/204/162 143/203/161
f 153/200/158 164/201/159 165/205/163 154/204/162
f 164/201/159 175/202/160 176/206/164 165/205/163
f 175/202/160 21/90/87 106/91/88 176/206/164
f 109/61/61 143/203/161 144/207/165 108/170/131
f 143/203/161 154/204/162 155/208/166 144/207/165
f 154/204/162 165/205/163 166/209/167 155/208/166
f 165/205/163 176/206/164 177/210/168 166/209/167
f 176/206/164 106/91/88 105/97/91 177/210/168
f 108/170/131 144/207/165 145/211/169 32/72/72
f 144/207/165 155/208/166 156/212/170 145/211/169
f 155/208/166 166/209/167 167/213/171 156/212/170
f 166/209/167 177/210/168 178/214/172 167/213/171
f 177/210/168 105/97/91 19/98/92 178/214/172
f 32/72/72 145/211/169 146/215/173 119/69/69
f 145/211/169 156/212/170 157/216/174 146/215/173
f 156/212/170 167/213/171 168/217/175 157/216/174
f 167/213/171 178/214/172 179/218/176 168/217/175
f 178/214/172 19/98/92 117/99/93 179/218/176
f 119/69/69 146/215/173 147/219/177 115/172/132
f 146/215/173 157/216/174 158/220/178 147/219/177
f 157/216/174 168/217/175 169/221/179 158/220/178
f 168/217/175 179/218/176 180/222/180 169/221/179
f 179/218/176 117/99/93 116/103/94 180/222/180
f 115/172/132 147/219/177 54/174/133 11/76/76
f 147/219/177 158/220/178 72/177/136 54/174/133
f 158/220/178 169/221/179 71/175/134 72/177/136
f 169/221/179 180/222/180 52/176/135 71/175/134
f 180/222/180 116/103/94 15/104/95 52/176/135
