# Blender v2.78 (sub 0) OBJ File: 'Game_Brücke.blend'
# www.blender.org
mtllib Stair_Wall_bend_COL.mtl
o Plane.001_Plane.002
v 0.000000 0.000000 0.181104
v 1.449427 0.000000 -0.379189
v 0.000000 0.000000 -0.172106
v 1.240199 0.000000 -0.663761
v 0.000000 1.345328 -0.172106
v 0.000000 1.345328 0.181104
v 1.449427 1.345328 -0.379189
v 1.240199 1.345328 -0.663761
v 0.793256 0.000000 0.036410
v 0.656261 0.000000 -0.288891
v 0.793256 1.345328 0.036410
v 0.656261 1.345328 -0.288891
v 0.793256 0.000000 0.036410
v 0.656261 0.000000 -0.288891
v 0.793256 1.345328 0.036410
v 0.656261 1.345328 -0.288891
vn 0.0000 -1.0000 0.0000
vn 0.0000 1.0000 -0.0000
vn 0.8057 0.0000 -0.5924
vn -1.0000 0.0000 0.0000
vn -0.1752 0.0000 -0.9845
vn 0.5351 0.0000 0.8448
vn 0.1794 0.0000 0.9838
vn -0.5402 0.0000 -0.8415
vn 0.0000 0.0000 1.0000
usemtl None
s off
f 9//1 10//1 4//1 2//1
f 11//2 7//2 8//2 12//2
f 2//3 4//3 8//3 7//3
f 3//4 1//4 6//4 5//4
f 10//5 3//5 5//5 12//5
f 9//6 2//6 7//6 11//6
f 1//7 9//7 11//7 6//7
f 4//8 10//8 12//8 8//8
f 6//2 11//2 12//2 5//2
f 1//1 3//1 10//1 9//1
f 12//9 11//9 15//9 16//9
f 11//9 9//9 13//9 15//9
f 9//9 10//9 14//9 13//9
f 12//9 10//9 14//9 16//9
